<svg width="29" height="29" viewBox="0 0 29 29" fill="none" xmlns="http://www.w3.org/2000/svg">
<path d="M13.9746 17.6713C15.8347 17.6713 17.3426 16.1849 17.3426 14.3513C17.3426 12.5178 15.8347 11.0314 13.9746 11.0314C12.1144 11.0314 10.6065 12.5178 10.6065 14.3513C10.6065 16.1849 12.1144 17.6713 13.9746 17.6713Z" fill="#343434"/>
<path d="M0.218114 10.8314C0.218114 10.8713 0.17749 10.9513 0.17749 10.9913C0.17749 11.3513 0.46153 11.6713 0.867331 11.6713H6.58907C6.87311 11.6713 7.07601 11.5113 7.19778 11.2713C8.37467 8.7113 10.9718 6.99125 13.9339 6.99125C18.0324 6.99125 21.36 10.2713 21.36 14.3113C21.36 18.3513 18.0324 21.6313 13.9339 21.6313C10.931 21.6313 8.37456 19.8713 7.19778 17.3913C7.07601 17.1113 6.87311 16.9513 6.58896 16.9513H0.867552C0.502264 16.9513 0.1776 17.2312 0.1776 17.6313C0.1776 17.6713 0.1776 17.7513 0.218225 17.7913C1.80081 23.8713 7.36016 28.3513 13.9746 28.3513C21.8065 28.3513 28.1775 22.0712 28.1775 14.3513C28.1774 6.63129 21.8063 0.351318 13.9745 0.351318C7.36016 0.351318 1.8007 4.83137 0.218114 10.8314Z" fill="#343434"/>
</svg>
