<svg width="230" height="29" viewBox="0 0 230 29" fill="none" xmlns="http://www.w3.org/2000/svg">
<path d="M13.9745 17.6714C15.8346 17.6714 17.3425 16.185 17.3425 14.3514C17.3425 12.5179 15.8346 11.0315 13.9745 11.0315C12.1143 11.0315 10.6064 12.5179 10.6064 14.3514C10.6064 16.185 12.1143 17.6714 13.9745 17.6714Z" fill="#343434"/>
<path d="M0.218114 10.8314C0.218114 10.8713 0.17749 10.9513 0.17749 10.9913C0.17749 11.3513 0.46153 11.6713 0.867331 11.6713H6.58907C6.87311 11.6713 7.07601 11.5113 7.19778 11.2713C8.37467 8.7113 10.9718 6.99125 13.9339 6.99125C18.0324 6.99125 21.36 10.2713 21.36 14.3113C21.36 18.3513 18.0324 21.6313 13.9339 21.6313C10.931 21.6313 8.37456 19.8713 7.19778 17.3913C7.07601 17.1113 6.87311 16.9513 6.58896 16.9513H0.867552C0.502264 16.9513 0.1776 17.2312 0.1776 17.6313C0.1776 17.6713 0.1776 17.7513 0.218225 17.7913C1.80081 23.8713 7.36016 28.3513 13.9746 28.3513C21.8065 28.3513 28.1775 22.0712 28.1775 14.3513C28.1774 6.63129 21.8063 0.351318 13.9745 0.351318C7.36016 0.351318 1.8007 4.83137 0.218114 10.8314Z" fill="#343434"/>
<path d="M43.754 22.132C42.61 22.132 41.51 21.9487 40.454 21.582C39.4127 21.2153 38.606 20.7313 38.034 20.13L38.672 18.876C39.2293 19.4333 39.97 19.888 40.894 20.24C41.818 20.5773 42.7713 20.746 43.754 20.746C45.1327 20.746 46.1667 20.4967 46.856 19.998C47.5453 19.4847 47.89 18.8247 47.89 18.018C47.89 17.402 47.6993 16.9107 47.318 16.544C46.9513 16.1773 46.4967 15.8987 45.954 15.708C45.4113 15.5027 44.656 15.2827 43.688 15.048C42.5293 14.7547 41.6053 14.476 40.916 14.212C40.2267 13.9333 39.6327 13.5153 39.134 12.958C38.65 12.4007 38.408 11.6453 38.408 10.692C38.408 9.91467 38.6133 9.21067 39.024 8.58C39.4347 7.93467 40.0653 7.42133 40.916 7.04C41.7667 6.65867 42.8227 6.468 44.084 6.468C44.964 6.468 45.822 6.59267 46.658 6.842C47.5087 7.07667 48.242 7.40667 48.858 7.832L48.308 9.13C47.6627 8.70467 46.9733 8.38933 46.24 8.184C45.5067 7.964 44.788 7.854 44.084 7.854C42.7347 7.854 41.7153 8.118 41.026 8.646C40.3513 9.15933 40.014 9.82667 40.014 10.648C40.014 11.264 40.1973 11.7627 40.564 12.144C40.9453 12.5107 41.4147 12.7967 41.972 13.002C42.544 13.1927 43.3067 13.4053 44.26 13.64C45.3893 13.9187 46.2987 14.1973 46.988 14.476C47.692 14.74 48.286 15.1507 48.77 15.708C49.254 16.2507 49.496 16.9913 49.496 17.93C49.496 18.7073 49.2833 19.4187 48.858 20.064C48.4473 20.6947 47.8093 21.2007 46.944 21.582C46.0787 21.9487 45.0153 22.132 43.754 22.132ZM55.8203 8.008H50.4083V6.6H62.8603V8.008H57.4483V22H55.8203V8.008ZM71.9783 22.132C70.4529 22.132 69.0669 21.7947 67.8203 21.12C66.5883 20.4307 65.6203 19.492 64.9163 18.304C64.2269 17.116 63.8823 15.7813 63.8823 14.3C63.8823 12.8187 64.2269 11.484 64.9163 10.296C65.6203 9.108 66.5883 8.17667 67.8203 7.502C69.0669 6.81267 70.4529 6.468 71.9783 6.468C73.5036 6.468 74.8749 6.80533 76.0923 7.48C77.3243 8.15467 78.2923 9.09333 78.9963 10.296C79.7003 11.484 80.0523 12.8187 80.0523 14.3C80.0523 15.7813 79.7003 17.1233 78.9963 18.326C78.2923 19.514 77.3243 20.4453 76.0923 21.12C74.8749 21.7947 73.5036 22.132 71.9783 22.132ZM71.9783 20.68C73.1956 20.68 74.2956 20.4087 75.2783 19.866C76.2609 19.3087 77.0309 18.546 77.5883 17.578C78.1456 16.5953 78.4243 15.5027 78.4243 14.3C78.4243 13.0973 78.1456 12.012 77.5883 11.044C77.0309 10.0613 76.2609 9.29867 75.2783 8.756C74.2956 8.19867 73.1956 7.92 71.9783 7.92C70.7609 7.92 69.6536 8.19867 68.6563 8.756C67.6736 9.29867 66.8963 10.0613 66.3243 11.044C65.7669 12.012 65.4883 13.0973 65.4883 14.3C65.4883 15.5027 65.7669 16.5953 66.3243 17.578C66.8963 18.546 67.6736 19.3087 68.6563 19.866C69.6536 20.4087 70.7609 20.68 71.9783 20.68ZM94.2174 22L90.6974 17.05C90.3014 17.094 89.8907 17.116 89.4654 17.116H85.3294V22H83.7014V6.6H89.4654C91.4307 6.6 92.9707 7.06933 94.0854 8.008C95.2 8.94667 95.7574 10.2373 95.7574 11.88C95.7574 13.0827 95.4494 14.102 94.8334 14.938C94.232 15.7593 93.3667 16.3533 92.2374 16.72L95.9994 22H94.2174ZM89.4214 15.73C90.9467 15.73 92.1127 15.3927 92.9194 14.718C93.726 14.0433 94.1294 13.0973 94.1294 11.88C94.1294 10.6333 93.726 9.68 92.9194 9.02C92.1127 8.34533 90.9467 8.008 89.4214 8.008H85.3294V15.73H89.4214ZM110.49 20.592V22H99.5998V6.6H110.16V8.008H101.228V13.486H109.192V14.872H101.228V20.592H110.49ZM130.964 20.592V22H120.074V6.6H130.634V8.008H121.702V13.486H129.666V14.872H121.702V20.592H130.964ZM139.878 16.676V22H138.272V16.676L132.112 6.6H133.85L139.13 15.246L144.41 6.6H146.038L139.878 16.676ZM159.13 20.592V22H148.24V6.6H158.8V8.008H149.868V13.486H157.832V14.872H149.868V20.592H159.13ZM183.884 6.6L178.692 22H176.976L172.466 8.866L167.934 22H166.24L161.048 6.6H162.72L167.164 19.844L171.762 6.6H173.28L177.812 19.91L182.322 6.6H183.884ZM197.759 20.592V22H186.869V6.6H197.429V8.008H188.497V13.486H196.461V14.872H188.497V20.592H197.759ZM212.102 22L208.582 17.05C208.186 17.094 207.775 17.116 207.35 17.116H203.214V22H201.586V6.6H207.35C209.315 6.6 210.855 7.06933 211.97 8.008C213.085 8.94667 213.642 10.2373 213.642 11.88C213.642 13.0827 213.334 14.102 212.718 14.938C212.117 15.7593 211.251 16.3533 210.122 16.72L213.884 22H212.102ZM207.306 15.73C208.831 15.73 209.997 15.3927 210.804 14.718C211.611 14.0433 212.014 13.0973 212.014 11.88C212.014 10.6333 211.611 9.68 210.804 9.02C209.997 8.34533 208.831 8.008 207.306 8.008H203.214V15.73H207.306ZM228.375 20.592V22H217.485V6.6H228.045V8.008H219.113V13.486H227.077V14.872H219.113V20.592H228.375Z" fill="#343434"/>
<path d="M40.454 21.582L40.1219 22.5252L40.126 22.5267L40.454 21.582ZM38.034 20.13L37.1427 19.6765L36.8221 20.3068L37.3094 20.8192L38.034 20.13ZM38.672 18.876L39.3791 18.1689L38.4052 17.195L37.7807 18.4225L38.672 18.876ZM40.894 20.24L40.538 21.1746L40.5511 21.1794L40.894 20.24ZM46.856 19.998L47.4422 20.8083L47.4533 20.8L46.856 19.998ZM47.318 16.544L46.6109 17.2511L46.6178 17.258L46.6249 17.2648L47.318 16.544ZM45.954 15.708L45.6001 16.6433L45.6113 16.6475L45.6225 16.6515L45.954 15.708ZM43.688 15.048L43.4426 16.0175L43.4524 16.0198L43.688 15.048ZM40.916 14.212L40.5412 15.1391L40.5498 15.1426L40.5584 15.1459L40.916 14.212ZM39.134 12.958L38.379 13.6137L38.3838 13.6193L38.3888 13.6248L39.134 12.958ZM39.024 8.58L39.862 9.1257L39.8677 9.11687L39.024 8.58ZM40.916 7.04L41.3251 7.95251L41.3251 7.95251L40.916 7.04ZM46.658 6.842L46.3722 7.80029L46.3821 7.80324L46.3921 7.80599L46.658 6.842ZM48.858 7.832L49.7788 8.22215L50.0966 7.47201L49.4262 7.0091L48.858 7.832ZM48.308 9.13L47.7577 9.96496L48.7603 10.6258L49.2288 9.52015L48.308 9.13ZM46.24 8.184L45.9527 9.14183L45.9615 9.14448L45.9704 9.14696L46.24 8.184ZM41.026 8.646L41.6315 9.44183L41.6341 9.43988L41.026 8.646ZM40.564 12.144L39.8432 12.8371L39.8568 12.8512L39.8709 12.8648L40.564 12.144ZM41.972 13.002L41.6263 13.9403L41.641 13.9457L41.6558 13.9507L41.972 13.002ZM44.26 13.64L44.4996 12.6691L44.499 12.669L44.26 13.64ZM46.988 14.476L46.6132 15.4031L46.625 15.4079L46.6369 15.4123L46.988 14.476ZM48.77 15.708L48.0149 16.3637L48.0237 16.3736L48.77 15.708ZM48.858 20.064L48.023 19.5137L48.02 19.5183L48.858 20.064ZM46.944 21.582L47.3341 22.5028L47.3407 22.5L47.3473 22.4971L46.944 21.582ZM43.754 21.132C42.719 21.132 41.7301 20.9665 40.782 20.6373L40.126 22.5267C41.2899 22.9308 42.501 23.132 43.754 23.132V21.132ZM40.7861 20.6388C39.8467 20.308 39.1918 19.8962 38.7586 19.4408L37.3094 20.8192C38.0202 21.5665 38.9787 22.1227 40.1219 22.5252L40.7861 20.6388ZM38.9253 20.5835L39.5633 19.3295L37.7807 18.4225L37.1427 19.6765L38.9253 20.5835ZM37.9649 19.5831C38.6439 20.2621 39.5147 20.7847 40.538 21.1745L41.25 19.3055C40.4253 18.9913 39.8148 18.6046 39.3791 18.1689L37.9649 19.5831ZM40.5511 21.1794C41.5848 21.5568 42.6542 21.746 43.754 21.746V19.746C42.8884 19.746 42.0512 19.5979 41.2369 19.3006L40.5511 21.1794ZM43.754 21.746C45.2234 21.746 46.5057 21.4856 47.4421 20.8082L46.2699 19.1878C45.8276 19.5077 45.042 19.746 43.754 19.746V21.746ZM47.4533 20.8C48.3767 20.1124 48.89 19.164 48.89 18.018H46.89C46.89 18.4853 46.714 18.8569 46.2587 19.196L47.4533 20.8ZM48.89 18.018C48.89 17.1786 48.621 16.4096 48.0111 15.8232L46.6249 17.2648C46.7777 17.4117 46.89 17.6254 46.89 18.018H48.89ZM48.0251 15.8369C47.5414 15.3532 46.9539 14.9994 46.2855 14.7645L45.6225 16.6515C46.0394 16.798 46.3613 17.0015 46.6109 17.2511L48.0251 15.8369ZM46.3079 14.7727C45.7088 14.546 44.9077 14.3147 43.9236 14.0761L43.4524 16.0198C44.4043 16.2506 45.1138 16.4593 45.6001 16.6433L46.3079 14.7727ZM43.9334 14.0786C42.7926 13.7898 41.911 13.5222 41.2736 13.2781L40.5584 15.1459C41.2997 15.4298 42.266 15.7196 43.4426 16.0174L43.9334 14.0786ZM41.2908 13.2849C40.7441 13.0639 40.2766 12.7353 39.8792 12.2912L38.3888 13.6248C38.9888 14.2954 39.7093 14.8028 40.5412 15.1391L41.2908 13.2849ZM39.889 12.3023C39.6045 11.9747 39.408 11.4763 39.408 10.692H37.408C37.408 11.8144 37.6955 12.8267 38.379 13.6137L39.889 12.3023ZM39.408 10.692C39.408 10.1017 39.5607 9.58843 39.862 9.12567L38.186 8.03433C37.666 8.8329 37.408 9.72766 37.408 10.692H39.408ZM39.8677 9.11687C40.1523 8.66955 40.6135 8.27148 41.3251 7.95251L40.5069 6.12749C39.5172 6.57118 38.717 7.19978 38.1803 8.04312L39.8677 9.11687ZM41.3251 7.95251C42.0102 7.6454 42.9167 7.468 44.084 7.468V5.468C42.7287 5.468 41.5232 5.67194 40.5069 6.12749L41.3251 7.95251ZM44.084 7.468C44.8681 7.468 45.6298 7.57886 46.3722 7.80029L46.9438 5.88371C46.0142 5.60647 45.0599 5.468 44.084 5.468V7.468ZM46.3921 7.80599C47.1536 8.01608 47.7808 8.30341 48.2898 8.6549L49.4262 7.0091C48.7032 6.50992 47.8637 6.13725 46.9239 5.87801L46.3921 7.80599ZM47.9372 7.44185L47.3872 8.73985L49.2288 9.52015L49.7788 8.22215L47.9372 7.44185ZM48.8583 8.29504C48.1279 7.81364 47.3441 7.45468 46.5096 7.22104L45.9704 9.14696C46.6026 9.32398 47.1974 9.59569 47.7577 9.96496L48.8583 8.29504ZM46.5273 7.22617C45.7089 6.98064 44.8934 6.854 44.084 6.854V8.854C44.6826 8.854 45.3044 8.94736 45.9527 9.14183L46.5273 7.22617ZM44.084 6.854C42.6292 6.854 41.3549 7.13447 40.4179 7.85212L41.6341 9.43988C42.0758 9.10153 42.8401 8.854 44.084 8.854V6.854ZM40.4205 7.85017C39.5066 8.5455 39.014 9.50276 39.014 10.648H41.014C41.014 10.1506 41.196 9.77317 41.6315 9.44183L40.4205 7.85017ZM39.014 10.648C39.014 11.4768 39.2681 12.239 39.8432 12.8371L41.2848 11.4509C41.1266 11.2863 41.014 11.0512 41.014 10.648H39.014ZM39.8709 12.8648C40.3633 13.3383 40.9553 13.6931 41.6263 13.9403L42.3177 12.0637C41.874 11.9002 41.5274 11.683 41.2571 11.4232L39.8709 12.8648ZM41.6558 13.9507C42.2639 14.1534 43.0556 14.3734 44.021 14.611L44.499 12.669C43.5578 12.4373 42.8241 12.2319 42.2882 12.0533L41.6558 13.9507ZM44.0204 14.6109C45.1263 14.8838 45.9851 15.1492 46.6132 15.4031L47.3628 13.5489C46.6122 13.2455 45.6524 12.9536 44.4996 12.6691L44.0204 14.6109ZM46.6369 15.4123C47.188 15.619 47.6422 15.9345 48.015 16.3637L49.525 15.0523C48.9298 14.3669 48.196 13.861 47.3391 13.5397L46.6369 15.4123ZM48.0237 16.3736C48.3013 16.6849 48.496 17.1635 48.496 17.93H50.496C50.496 16.8192 50.2067 15.8165 49.5163 15.0424L48.0237 16.3736ZM48.496 17.93C48.496 18.5129 48.3401 19.0327 48.023 19.5137L49.693 20.6143C50.2266 19.8046 50.496 18.9018 50.496 17.93H48.496ZM48.02 19.5183C47.7395 19.9491 47.2739 20.3438 46.5407 20.6669L47.3473 22.4971C48.3448 22.0575 49.1552 21.4403 49.696 20.6097L48.02 19.5183ZM46.5539 20.6612C45.8464 20.961 44.9246 21.132 43.754 21.132V23.132C45.1061 23.132 46.311 22.9363 47.3341 22.5028L46.5539 20.6612ZM55.8203 8.008H56.8203V7.008H55.8203V8.008ZM50.4083 8.008H49.4083V9.008H50.4083V8.008ZM50.4083 6.6V5.6H49.4083V6.6H50.4083ZM62.8603 6.6H63.8603V5.6H62.8603V6.6ZM62.8603 8.008V9.008H63.8603V8.008H62.8603ZM57.4483 8.008V7.008H56.4483V8.008H57.4483ZM57.4483 22V23H58.4483V22H57.4483ZM55.8203 22H54.8203V23H55.8203V22ZM55.8203 7.008H50.4083V9.008H55.8203V7.008ZM51.4083 8.008V6.6H49.4083V8.008H51.4083ZM50.4083 7.6H62.8603V5.6H50.4083V7.6ZM61.8603 6.6V8.008H63.8603V6.6H61.8603ZM62.8603 7.008H57.4483V9.008H62.8603V7.008ZM56.4483 8.008V22H58.4483V8.008H56.4483ZM57.4483 21H55.8203V23H57.4483V21ZM56.8203 22V8.008H54.8203V22H56.8203ZM67.8203 21.12L67.3319 21.9928L67.3443 21.9995L67.8203 21.12ZM64.9163 18.304L64.0513 18.8059L64.056 18.8138L64.9163 18.304ZM64.9163 10.296L64.056 9.78618L64.0513 9.79412L64.9163 10.296ZM67.8203 7.502L68.3006 8.3791L68.3042 8.37713L67.8203 7.502ZM76.0923 7.48L75.6075 8.35466L75.612 8.3571L76.0923 7.48ZM78.9963 10.296L78.1333 10.8012L78.136 10.8058L78.9963 10.296ZM78.9963 18.326L79.8566 18.8358L79.8593 18.8312L78.9963 18.326ZM76.0923 21.12L75.612 20.2429L75.6075 20.2453L76.0923 21.12ZM75.2783 19.866L75.7617 20.7414L75.7716 20.7358L75.2783 19.866ZM77.5883 17.578L78.4549 18.077L78.4581 18.0713L77.5883 17.578ZM77.5883 11.044L76.7184 11.5373L76.7217 11.543L77.5883 11.044ZM75.2783 8.756L74.7849 9.62589L74.7949 9.63139L75.2783 8.756ZM68.6563 8.756L69.1397 9.6314L69.1441 9.62894L68.6563 8.756ZM66.3243 11.044L65.46 10.5409L65.4577 10.545L66.3243 11.044ZM66.3243 17.578L65.4544 18.0713L65.4588 18.0791L65.4634 18.0867L66.3243 17.578ZM68.6563 19.866L68.1629 20.7358L68.1706 20.7402L68.1783 20.7444L68.6563 19.866ZM71.9783 21.132C70.6062 21.132 69.3857 20.8301 68.2962 20.2405L67.3443 21.9995C68.7482 22.7592 70.2997 23.132 71.9783 23.132V21.132ZM68.3086 20.2473C67.2268 19.642 66.3886 18.8271 65.7766 17.7942L64.056 18.8138C64.8519 20.1569 65.9498 21.2193 67.332 21.9927L68.3086 20.2473ZM65.7812 17.8021C65.1873 16.7785 64.8823 15.6194 64.8823 14.3H62.8823C62.8823 15.9433 63.2666 17.4535 64.0513 18.8059L65.7812 17.8021ZM64.8823 14.3C64.8823 12.9806 65.1873 11.8215 65.7812 10.7979L64.0513 9.79412C63.2666 11.1465 62.8823 12.6567 62.8823 14.3H64.8823ZM65.7766 10.8058C66.3875 9.77485 67.2231 8.96917 68.3006 8.3791L67.34 6.6249C65.9535 7.38416 64.8531 8.44115 64.056 9.7862L65.7766 10.8058ZM68.3042 8.37713C69.3923 7.77547 70.6099 7.468 71.9783 7.468V5.468C70.296 5.468 68.7416 5.84986 67.3364 6.62687L68.3042 8.37713ZM71.9783 7.468C73.3507 7.468 74.5525 7.76992 75.6075 8.35465L76.577 6.60535C75.1974 5.84075 73.6565 5.468 71.9783 5.468V7.468ZM75.612 8.3571C76.6864 8.94547 77.5216 9.75617 78.1333 10.8012L79.8593 9.79082C79.063 8.4305 77.9622 7.36386 76.5726 6.6029L75.612 8.3571ZM78.136 10.8058C78.7419 11.8282 79.0523 12.9845 79.0523 14.3H81.0523C81.0523 12.6528 80.6587 11.1398 79.8566 9.7862L78.136 10.8058ZM79.0523 14.3C79.0523 15.6154 78.7419 16.7811 78.1333 17.8208L79.8593 18.8312C80.6587 17.4655 81.0523 15.9473 81.0523 14.3H79.0523ZM78.136 17.8162C77.5251 18.8471 76.6895 19.6528 75.612 20.2429L76.5726 21.9971C77.9591 21.2378 79.0595 20.1809 79.8566 18.8358L78.136 17.8162ZM75.6075 20.2453C74.5525 20.8301 73.3507 21.132 71.9783 21.132V23.132C73.6565 23.132 75.1974 22.7593 76.577 21.9947L75.6075 20.2453ZM71.9783 21.68C73.35 21.68 74.6187 21.3726 75.7617 20.7414L74.7949 18.9906C73.9725 19.4447 73.0412 19.68 71.9783 19.68V21.68ZM75.7716 20.7358C76.9077 20.0915 77.8074 19.2015 78.4549 18.077L76.7217 17.079C76.2545 17.8905 75.6142 18.5259 74.7849 18.9962L75.7716 20.7358ZM78.4581 18.0713C79.1063 16.9285 79.4243 15.664 79.4243 14.3H77.4243C77.4243 15.3413 77.1849 16.2622 76.7184 17.0847L78.4581 18.0713ZM79.4243 14.3C79.4243 12.9361 79.1063 11.6764 78.4549 10.545L76.7217 11.543C77.1849 12.3476 77.4243 13.2586 77.4243 14.3H79.4243ZM78.4581 10.5507C77.8103 9.4085 76.9071 8.51312 75.7617 7.88061L74.7949 9.63139C75.6148 10.0842 76.2516 10.7142 76.7184 11.5373L78.4581 10.5507ZM75.7716 7.88616C74.6269 7.23694 73.3547 6.92 71.9783 6.92V8.92C73.0365 8.92 73.9643 9.16039 74.7849 9.62584L75.7716 7.88616ZM71.9783 6.92C70.6017 6.92 69.3247 7.23694 68.1685 7.88306L69.1441 9.62894C69.9826 9.16039 70.9202 8.92 71.9783 8.92V6.92ZM68.1729 7.88061C67.0298 8.51186 66.1218 9.40414 65.46 10.5409L67.1885 11.5471C67.6708 10.7185 68.3174 10.0855 69.1397 9.63139L68.1729 7.88061ZM65.4577 10.545C64.8063 11.6764 64.4883 12.9361 64.4883 14.3H66.4883C66.4883 13.2586 66.7276 12.3476 67.1909 11.543L65.4577 10.545ZM64.4883 14.3C64.4883 15.664 64.8063 16.9285 65.4544 18.0713L67.1941 17.0847C66.7276 16.2622 66.4883 15.3413 66.4883 14.3H64.4883ZM65.4634 18.0867C66.1247 19.2059 67.0291 20.0927 68.1629 20.7358L69.1496 18.9962C68.3182 18.5246 67.6679 17.8861 67.1852 17.0693L65.4634 18.0867ZM68.1783 20.7444C69.3329 21.3726 70.6064 21.68 71.9783 21.68V19.68C70.9155 19.68 69.9744 19.4448 69.1342 18.9876L68.1783 20.7444ZM94.2174 22L93.4024 22.5795L93.7014 23H94.2174V22ZM90.6974 17.05L91.5123 16.4705L91.1715 15.9912L90.5869 16.0561L90.6974 17.05ZM85.3294 17.116V16.116H84.3294V17.116H85.3294ZM85.3294 22V23H86.3294V22H85.3294ZM83.7014 22H82.7014V23H83.7014V22ZM83.7014 6.6V5.6H82.7014V6.6H83.7014ZM94.0854 8.008L93.4412 8.77291L93.4412 8.77291L94.0854 8.008ZM94.8334 14.938L94.0283 14.3448L94.0265 14.3473L94.8334 14.938ZM92.2374 16.72L91.9286 15.7689L90.6318 16.1899L91.4229 17.3003L92.2374 16.72ZM95.9994 22V23H97.9397L96.8138 21.4197L95.9994 22ZM92.9194 14.718L93.5609 15.4851L93.5609 15.4851L92.9194 14.718ZM92.9194 9.02L92.2778 9.78712L92.2861 9.79396L92.9194 9.02ZM85.3294 8.008V7.008H84.3294V8.008H85.3294ZM85.3294 15.73H84.3294V16.73H85.3294V15.73ZM95.0323 21.4205L91.5123 16.4705L89.8824 17.6295L93.4024 22.5795L95.0323 21.4205ZM90.5869 16.0561C90.23 16.0958 89.8563 16.116 89.4654 16.116V18.116C89.9251 18.116 90.3728 18.0922 90.8078 18.0439L90.5869 16.0561ZM89.4654 16.116H85.3294V18.116H89.4654V16.116ZM84.3294 17.116V22H86.3294V17.116H84.3294ZM85.3294 21H83.7014V23H85.3294V21ZM84.7014 22V6.6H82.7014V22H84.7014ZM83.7014 7.6H89.4654V5.6H83.7014V7.6ZM89.4654 7.6C91.2775 7.6 92.5612 8.03186 93.4412 8.77291L94.7295 7.24309C93.3802 6.1068 91.5839 5.6 89.4654 5.6V7.6ZM93.4412 8.77291C94.2999 9.49601 94.7574 10.4902 94.7574 11.88H96.7574C96.7574 9.98449 96.1001 8.39732 94.7295 7.24309L93.4412 8.77291ZM94.7574 11.88C94.7574 12.9042 94.4984 13.7069 94.0283 14.3448L95.6384 15.5312C96.4004 14.4971 96.7574 13.2611 96.7574 11.88H94.7574ZM94.0265 14.3473C93.569 14.9722 92.8925 15.4559 91.9286 15.7689L92.5462 17.6711C93.8409 17.2508 94.8951 16.5465 95.6402 15.5287L94.0265 14.3473ZM91.4229 17.3003L95.1849 22.5803L96.8138 21.4197L93.0518 16.1397L91.4229 17.3003ZM95.9994 21H94.2174V23H95.9994V21ZM89.4214 16.73C91.0781 16.73 92.5085 16.3653 93.5609 15.4851L92.2778 13.9509C91.7169 14.4201 90.8153 14.73 89.4214 14.73V16.73ZM93.5609 15.4851C94.6319 14.5894 95.1294 13.3415 95.1294 11.88H93.1294C93.1294 12.8532 92.8202 13.4973 92.2778 13.9509L93.5609 15.4851ZM95.1294 11.88C95.1294 10.3986 94.6375 9.13371 93.5526 8.24604L92.2861 9.79396C92.8145 10.2263 93.1294 10.8681 93.1294 11.88H95.1294ZM93.5609 8.25292C92.5085 7.37274 91.0781 7.008 89.4214 7.008V9.008C90.8153 9.008 91.7169 9.31792 92.2778 9.78708L93.5609 8.25292ZM89.4214 7.008H85.3294V9.008H89.4214V7.008ZM84.3294 8.008V15.73H86.3294V8.008H84.3294ZM85.3294 16.73H89.4214V14.73H85.3294V16.73ZM110.49 20.592H111.49V19.592H110.49V20.592ZM110.49 22V23H111.49V22H110.49ZM99.5998 22H98.5998V23H99.5998V22ZM99.5998 6.6V5.6H98.5998V6.6H99.5998ZM110.16 6.6H111.16V5.6H110.16V6.6ZM110.16 8.008V9.008H111.16V8.008H110.16ZM101.228 8.008V7.008H100.228V8.008H101.228ZM101.228 13.486H100.228V14.486H101.228V13.486ZM109.192 13.486H110.192V12.486H109.192V13.486ZM109.192 14.872V15.872H110.192V14.872H109.192ZM101.228 14.872V13.872H100.228V14.872H101.228ZM101.228 20.592H100.228V21.592H101.228V20.592ZM109.49 20.592V22H111.49V20.592H109.49ZM110.49 21H99.5998V23H110.49V21ZM100.6 22V6.6H98.5998V22H100.6ZM99.5998 7.6H110.16V5.6H99.5998V7.6ZM109.16 6.6V8.008H111.16V6.6H109.16ZM110.16 7.008H101.228V9.008H110.16V7.008ZM100.228 8.008V13.486H102.228V8.008H100.228ZM101.228 14.486H109.192V12.486H101.228V14.486ZM108.192 13.486V14.872H110.192V13.486H108.192ZM109.192 13.872H101.228V15.872H109.192V13.872ZM100.228 14.872V20.592H102.228V14.872H100.228ZM101.228 21.592H110.49V19.592H101.228V21.592ZM130.964 20.592H131.964V19.592H130.964V20.592ZM130.964 22V23H131.964V22H130.964ZM120.074 22H119.074V23H120.074V22ZM120.074 6.6V5.6H119.074V6.6H120.074ZM130.634 6.6H131.634V5.6H130.634V6.6ZM130.634 8.008V9.008H131.634V8.008H130.634ZM121.702 8.008V7.008H120.702V8.008H121.702ZM121.702 13.486H120.702V14.486H121.702V13.486ZM129.666 13.486H130.666V12.486H129.666V13.486ZM129.666 14.872V15.872H130.666V14.872H129.666ZM121.702 14.872V13.872H120.702V14.872H121.702ZM121.702 20.592H120.702V21.592H121.702V20.592ZM129.964 20.592V22H131.964V20.592H129.964ZM130.964 21H120.074V23H130.964V21ZM121.074 22V6.6H119.074V22H121.074ZM120.074 7.6H130.634V5.6H120.074V7.6ZM129.634 6.6V8.008H131.634V6.6H129.634ZM130.634 7.008H121.702V9.008H130.634V7.008ZM120.702 8.008V13.486H122.702V8.008H120.702ZM121.702 14.486H129.666V12.486H121.702V14.486ZM128.666 13.486V14.872H130.666V13.486H128.666ZM129.666 13.872H121.702V15.872H129.666V13.872ZM120.702 14.872V20.592H122.702V14.872H120.702ZM121.702 21.592H130.964V19.592H121.702V21.592ZM139.878 16.676L139.025 16.1544L138.878 16.3945V16.676H139.878ZM139.878 22V23H140.878V22H139.878ZM138.272 22H137.272V23H138.272V22ZM138.272 16.676H139.272V16.3945L139.125 16.1544L138.272 16.676ZM132.112 6.6V5.6H130.328L131.259 7.1216L132.112 6.6ZM133.85 6.6L134.703 6.07881L134.411 5.6H133.85V6.6ZM139.13 15.246L138.276 15.7672L139.13 17.1647L139.983 15.7672L139.13 15.246ZM144.41 6.6V5.6H143.849L143.556 6.07881L144.41 6.6ZM146.038 6.6L146.891 7.1216L147.821 5.6H146.038V6.6ZM138.878 16.676V22H140.878V16.676H138.878ZM139.878 21H138.272V23H139.878V21ZM139.272 22V16.676H137.272V22H139.272ZM139.125 16.1544L132.965 6.0784L131.259 7.1216L137.419 17.1976L139.125 16.1544ZM132.112 7.6H133.85V5.6H132.112V7.6ZM132.996 7.12119L138.276 15.7672L139.983 14.7248L134.703 6.07881L132.996 7.12119ZM139.983 15.7672L145.263 7.12119L143.556 6.07881L138.276 14.7248L139.983 15.7672ZM144.41 7.6H146.038V5.6H144.41V7.6ZM145.185 6.0784L139.025 16.1544L140.731 17.1976L146.891 7.1216L145.185 6.0784ZM159.13 20.592H160.13V19.592H159.13V20.592ZM159.13 22V23H160.13V22H159.13ZM148.24 22H147.24V23H148.24V22ZM148.24 6.6V5.6H147.24V6.6H148.24ZM158.8 6.6H159.8V5.6H158.8V6.6ZM158.8 8.008V9.008H159.8V8.008H158.8ZM149.868 8.008V7.008H148.868V8.008H149.868ZM149.868 13.486H148.868V14.486H149.868V13.486ZM157.832 13.486H158.832V12.486H157.832V13.486ZM157.832 14.872V15.872H158.832V14.872H157.832ZM149.868 14.872V13.872H148.868V14.872H149.868ZM149.868 20.592H148.868V21.592H149.868V20.592ZM158.13 20.592V22H160.13V20.592H158.13ZM159.13 21H148.24V23H159.13V21ZM149.24 22V6.6H147.24V22H149.24ZM148.24 7.6H158.8V5.6H148.24V7.6ZM157.8 6.6V8.008H159.8V6.6H157.8ZM158.8 7.008H149.868V9.008H158.8V7.008ZM148.868 8.008V13.486H150.868V8.008H148.868ZM149.868 14.486H157.832V12.486H149.868V14.486ZM156.832 13.486V14.872H158.832V13.486H156.832ZM157.832 13.872H149.868V15.872H157.832V13.872ZM148.868 14.872V20.592H150.868V14.872H148.868ZM149.868 21.592H159.13V19.592H149.868V21.592ZM183.884 6.6L184.832 6.91947L185.277 5.6H183.884V6.6ZM178.692 22V23H179.411L179.64 22.3195L178.692 22ZM176.976 22L176.031 22.3248L176.262 23H176.976V22ZM172.466 8.866L173.412 8.54123L172.469 5.7936L171.521 8.53981L172.466 8.866ZM167.934 22V23H168.647L168.88 22.3262L167.934 22ZM166.24 22L165.293 22.3195L165.522 23H166.24V22ZM161.048 6.6V5.6H159.656L160.101 6.91947L161.048 6.6ZM162.72 6.6L163.668 6.28188L163.44 5.6H162.72V6.6ZM167.164 19.844L166.216 20.1621L167.148 22.9395L168.109 20.172L167.164 19.844ZM171.762 6.6V5.6H171.051L170.818 6.27203L171.762 6.6ZM173.28 6.6L174.227 6.27768L173.996 5.6H173.28V6.6ZM177.812 19.91L176.866 20.2323L177.815 23.0192L178.759 20.2309L177.812 19.91ZM182.322 6.6V5.6H181.605L181.375 6.27908L182.322 6.6ZM182.937 6.28052L177.745 21.6805L179.64 22.3195L184.832 6.91947L182.937 6.28052ZM178.692 21H176.976V23H178.692V21ZM177.922 21.6752L173.412 8.54123L171.521 9.19077L176.031 22.3248L177.922 21.6752ZM171.521 8.53981L166.989 21.6738L168.88 22.3262L173.412 9.19219L171.521 8.53981ZM167.934 21H166.24V23H167.934V21ZM167.188 21.6805L161.996 6.28052L160.101 6.91947L165.293 22.3195L167.188 21.6805ZM161.048 7.6H162.72V5.6H161.048V7.6ZM161.772 6.91812L166.216 20.1621L168.112 19.5259L163.668 6.28188L161.772 6.91812ZM168.109 20.172L172.707 6.92797L170.818 6.27203L166.22 19.516L168.109 20.172ZM171.762 7.6H173.28V5.6H171.762V7.6ZM172.334 6.92232L176.866 20.2323L178.759 19.5877L174.227 6.27768L172.334 6.92232ZM178.759 20.2309L183.269 6.92092L181.375 6.27908L176.865 19.5891L178.759 20.2309ZM182.322 7.6H183.884V5.6H182.322V7.6ZM197.759 20.592H198.759V19.592H197.759V20.592ZM197.759 22V23H198.759V22H197.759ZM186.869 22H185.869V23H186.869V22ZM186.869 6.6V5.6H185.869V6.6H186.869ZM197.429 6.6H198.429V5.6H197.429V6.6ZM197.429 8.008V9.008H198.429V8.008H197.429ZM188.497 8.008V7.008H187.497V8.008H188.497ZM188.497 13.486H187.497V14.486H188.497V13.486ZM196.461 13.486H197.461V12.486H196.461V13.486ZM196.461 14.872V15.872H197.461V14.872H196.461ZM188.497 14.872V13.872H187.497V14.872H188.497ZM188.497 20.592H187.497V21.592H188.497V20.592ZM196.759 20.592V22H198.759V20.592H196.759ZM197.759 21H186.869V23H197.759V21ZM187.869 22V6.6H185.869V22H187.869ZM186.869 7.6H197.429V5.6H186.869V7.6ZM196.429 6.6V8.008H198.429V6.6H196.429ZM197.429 7.008H188.497V9.008H197.429V7.008ZM187.497 8.008V13.486H189.497V8.008H187.497ZM188.497 14.486H196.461V12.486H188.497V14.486ZM195.461 13.486V14.872H197.461V13.486H195.461ZM196.461 13.872H188.497V15.872H196.461V13.872ZM187.497 14.872V20.592H189.497V14.872H187.497ZM188.497 21.592H197.759V19.592H188.497V21.592ZM212.102 22L211.287 22.5795L211.586 23H212.102V22ZM208.582 17.05L209.397 16.4705L209.056 15.9912L208.472 16.0561L208.582 17.05ZM203.214 17.116V16.116H202.214V17.116H203.214ZM203.214 22V23H204.214V22H203.214ZM201.586 22H200.586V23H201.586V22ZM201.586 6.6V5.6H200.586V6.6H201.586ZM211.97 8.008L211.326 8.77291L211.326 8.77291L211.97 8.008ZM212.718 14.938L211.913 14.3448L211.911 14.3473L212.718 14.938ZM210.122 16.72L209.813 15.7689L208.517 16.1899L209.308 17.3003L210.122 16.72ZM213.884 22V23H215.824L214.699 21.4197L213.884 22ZM210.804 14.718L211.446 15.4851L211.446 15.4851L210.804 14.718ZM210.804 9.02L210.163 9.78712L210.171 9.79396L210.804 9.02ZM203.214 8.008V7.008H202.214V8.008H203.214ZM203.214 15.73H202.214V16.73H203.214V15.73ZM212.917 21.4205L209.397 16.4705L207.767 17.6295L211.287 22.5795L212.917 21.4205ZM208.472 16.0561C208.115 16.0958 207.741 16.116 207.35 16.116V18.116C207.81 18.116 208.258 18.0922 208.693 18.0439L208.472 16.0561ZM207.35 16.116H203.214V18.116H207.35V16.116ZM202.214 17.116V22H204.214V17.116H202.214ZM203.214 21H201.586V23H203.214V21ZM202.586 22V6.6H200.586V22H202.586ZM201.586 7.6H207.35V5.6H201.586V7.6ZM207.35 7.6C209.162 7.6 210.446 8.03186 211.326 8.77291L212.614 7.24309C211.265 6.1068 209.469 5.6 207.35 5.6V7.6ZM211.326 8.77291C212.185 9.49601 212.642 10.4902 212.642 11.88H214.642C214.642 9.98449 213.985 8.39732 212.614 7.24309L211.326 8.77291ZM212.642 11.88C212.642 12.9042 212.383 13.7069 211.913 14.3448L213.523 15.5312C214.285 14.4971 214.642 13.2611 214.642 11.88H212.642ZM211.911 14.3473C211.454 14.9722 210.777 15.4559 209.813 15.7689L210.431 17.6711C211.726 17.2508 212.78 16.5465 213.525 15.5287L211.911 14.3473ZM209.308 17.3003L213.07 22.5803L214.699 21.4197L210.937 16.1397L209.308 17.3003ZM213.884 21H212.102V23H213.884V21ZM207.306 16.73C208.963 16.73 210.393 16.3653 211.446 15.4851L210.163 13.9509C209.602 14.4201 208.7 14.73 207.306 14.73V16.73ZM211.446 15.4851C212.517 14.5894 213.014 13.3415 213.014 11.88H211.014C211.014 12.8532 210.705 13.4973 210.163 13.9509L211.446 15.4851ZM213.014 11.88C213.014 10.3986 212.522 9.13371 211.437 8.24604L210.171 9.79396C210.699 10.2263 211.014 10.8681 211.014 11.88H213.014ZM211.446 8.25292C210.393 7.37274 208.963 7.008 207.306 7.008V9.008C208.7 9.008 209.602 9.31792 210.163 9.78708L211.446 8.25292ZM207.306 7.008H203.214V9.008H207.306V7.008ZM202.214 8.008V15.73H204.214V8.008H202.214ZM203.214 16.73H207.306V14.73H203.214V16.73ZM228.375 20.592H229.375V19.592H228.375V20.592ZM228.375 22V23H229.375V22H228.375ZM217.485 22H216.485V23H217.485V22ZM217.485 6.6V5.6H216.485V6.6H217.485ZM228.045 6.6H229.045V5.6H228.045V6.6ZM228.045 8.008V9.008H229.045V8.008H228.045ZM219.113 8.008V7.008H218.113V8.008H219.113ZM219.113 13.486H218.113V14.486H219.113V13.486ZM227.077 13.486H228.077V12.486H227.077V13.486ZM227.077 14.872V15.872H228.077V14.872H227.077ZM219.113 14.872V13.872H218.113V14.872H219.113ZM219.113 20.592H218.113V21.592H219.113V20.592ZM227.375 20.592V22H229.375V20.592H227.375ZM228.375 21H217.485V23H228.375V21ZM218.485 22V6.6H216.485V22H218.485ZM217.485 7.6H228.045V5.6H217.485V7.6ZM227.045 6.6V8.008H229.045V6.6H227.045ZM228.045 7.008H219.113V9.008H228.045V7.008ZM218.113 8.008V13.486H220.113V8.008H218.113ZM219.113 14.486H227.077V12.486H219.113V14.486ZM226.077 13.486V14.872H228.077V13.486H226.077ZM227.077 13.872H219.113V15.872H227.077V13.872ZM218.113 14.872V20.592H220.113V14.872H218.113ZM219.113 21.592H228.375V19.592H219.113V21.592Z" fill="#3F3F3F"/>
</svg>
