<svg width="224" height="28" viewBox="0 0 224 28" fill="none" xmlns="http://www.w3.org/2000/svg">
<path d="M13.7971 17.3201C15.6572 17.3201 17.1651 15.8337 17.1651 14.0001C17.1651 12.1666 15.6572 10.6802 13.7971 10.6802C11.9369 10.6802 10.429 12.1666 10.429 14.0001C10.429 15.8337 11.9369 17.3201 13.7971 17.3201Z" fill="#343434"/>
<path d="M0.040624 10.4801C0.040624 10.52 0 10.6 0 10.64C0 11 0.28404 11.32 0.689841 11.32H6.41158C6.69562 11.32 6.89852 11.16 7.02029 10.92C8.19718 8.35998 10.7943 6.63993 13.7564 6.63993C17.8549 6.63993 21.1825 9.91998 21.1825 13.96C21.1825 18 17.8549 21.28 13.7564 21.28C10.7535 21.28 8.19707 19.52 7.02029 17.04C6.89852 16.76 6.69562 16.6 6.41147 16.6H0.690062C0.324774 16.6 0.00011 16.8799 0.00011 17.28C0.00011 17.32 0.000110008 17.4 0.040735 17.44C1.62332 23.52 7.18267 28 13.7971 28C21.629 28 28 21.7199 28 14C27.9999 6.27997 21.6288 0 13.797 0C7.18267 0 1.62321 4.48005 0.040624 10.4801Z" fill="#343434"/>
<path d="M43.5312 10.2756C43.4555 9.60322 43.143 9.08239 42.5938 8.71307C42.0445 8.33902 41.3532 8.15199 40.5199 8.15199C39.9233 8.15199 39.4072 8.24669 38.9716 8.43608C38.536 8.62074 38.1974 8.87642 37.956 9.20312C37.7192 9.52509 37.6009 9.89205 37.6009 10.304C37.6009 10.6496 37.6813 10.9479 37.8423 11.1989C38.008 11.4498 38.2235 11.6605 38.4886 11.831C38.7585 11.9967 39.0473 12.1364 39.3551 12.25C39.6629 12.3589 39.9588 12.4489 40.2429 12.5199L41.6634 12.8892C42.1274 13.0028 42.6032 13.1567 43.0909 13.3509C43.5786 13.545 44.0308 13.8007 44.4474 14.1179C44.8641 14.4351 45.2003 14.8281 45.456 15.2969C45.7164 15.7656 45.8466 16.3267 45.8466 16.9801C45.8466 17.804 45.6335 18.5355 45.2074 19.1747C44.786 19.8139 44.1728 20.3182 43.3679 20.6875C42.5677 21.0568 41.5994 21.2415 40.4631 21.2415C39.3741 21.2415 38.4318 21.0687 37.6364 20.723C36.8409 20.3774 36.2183 19.8873 35.7685 19.2528C35.3187 18.6136 35.0701 17.8561 35.0227 16.9801H37.2244C37.267 17.5057 37.4375 17.9437 37.7358 18.294C38.0388 18.6397 38.4247 18.8977 38.8935 19.0682C39.367 19.2339 39.8854 19.3168 40.4489 19.3168C41.0691 19.3168 41.6207 19.2197 42.1037 19.0256C42.5914 18.8267 42.9749 18.5521 43.2543 18.2017C43.5336 17.8466 43.6733 17.4323 43.6733 16.9588C43.6733 16.5279 43.5502 16.1752 43.304 15.9006C43.0625 15.6259 42.7334 15.3987 42.3168 15.2188C41.9048 15.0388 41.4384 14.8802 40.9176 14.7429L39.1989 14.2741C38.0341 13.9569 37.1108 13.4905 36.429 12.875C35.7519 12.2595 35.4134 11.4451 35.4134 10.4318C35.4134 9.59375 35.6406 8.86222 36.0952 8.23722C36.5497 7.61222 37.1652 7.12689 37.9418 6.78125C38.7183 6.43087 39.5942 6.25568 40.5696 6.25568C41.5545 6.25568 42.4233 6.4285 43.1761 6.77415C43.9337 7.11979 44.5303 7.59564 44.9659 8.2017C45.4015 8.80303 45.6288 9.49432 45.6477 10.2756H43.5312ZM47.7518 8.34375V6.45455H59.0089V8.34375H54.4705V21H52.283V8.34375H47.7518ZM73.5064 13.7273C73.5064 15.2803 73.2223 16.6155 72.6541 17.733C72.0859 18.8456 71.3071 19.7027 70.3175 20.304C69.3326 20.9006 68.2128 21.1989 66.9581 21.1989C65.6986 21.1989 64.5741 20.9006 63.5845 20.304C62.5997 19.7027 61.8232 18.8433 61.255 17.7259C60.6868 16.6084 60.4027 15.2756 60.4027 13.7273C60.4027 12.1742 60.6868 10.8414 61.255 9.72869C61.8232 8.61127 62.5997 7.75426 63.5845 7.15767C64.5741 6.55634 65.6986 6.25568 66.9581 6.25568C68.2128 6.25568 69.3326 6.55634 70.3175 7.15767C71.3071 7.75426 72.0859 8.61127 72.6541 9.72869C73.2223 10.8414 73.5064 12.1742 73.5064 13.7273ZM71.3331 13.7273C71.3331 12.5436 71.1413 11.5469 70.7578 10.7372C70.379 9.92282 69.8582 9.30729 69.1953 8.89062C68.5372 8.46922 67.7914 8.25852 66.9581 8.25852C66.12 8.25852 65.3719 8.46922 64.7138 8.89062C64.0556 9.30729 63.5348 9.92282 63.1513 10.7372C62.7725 11.5469 62.5831 12.5436 62.5831 13.7273C62.5831 14.911 62.7725 15.91 63.1513 16.7244C63.5348 17.5341 64.0556 18.1496 64.7138 18.571C65.3719 18.9877 66.12 19.196 66.9581 19.196C67.7914 19.196 68.5372 18.9877 69.1953 18.571C69.8582 18.1496 70.379 17.5341 70.7578 16.7244C71.1413 15.91 71.3331 14.911 71.3331 13.7273ZM76.2425 21V6.45455H81.4272C82.5541 6.45455 83.4892 6.64867 84.2326 7.03693C84.9807 7.42519 85.5394 7.96259 85.9087 8.64915C86.2781 9.33097 86.4627 10.1193 86.4627 11.0142C86.4627 11.9044 86.2757 12.688 85.9016 13.3651C85.5323 14.0374 84.9736 14.5606 84.2255 14.9347C83.4821 15.3087 82.547 15.4957 81.4201 15.4957H77.4925V13.6065H81.2212C81.9315 13.6065 82.5091 13.5047 82.9542 13.3011C83.404 13.0975 83.7331 12.8016 83.9414 12.4134C84.1497 12.0251 84.2539 11.5587 84.2539 11.0142C84.2539 10.465 84.1474 9.98911 83.9343 9.58665C83.726 9.18419 83.3969 8.87642 82.9471 8.66335C82.502 8.44555 81.9173 8.33665 81.1928 8.33665H78.4371V21H76.2425ZM83.4229 14.4375L87.0167 21H84.5167L80.994 14.4375H83.4229ZM89.1332 21V6.45455H98.2525V8.34375H91.3278V12.7756H97.7766V14.6577H91.3278V19.1108H98.3377V21H89.1332ZM106.477 21V6.45455H115.596V8.34375H108.672V12.7756H115.12V14.6577H108.672V19.1108H115.681V21H106.477ZM117.406 6.45455H119.898L123.698 13.0668H123.854L127.654 6.45455H130.147L124.87 15.2898V21H122.683V15.2898L117.406 6.45455ZM132.219 21V6.45455H141.338V8.34375H134.414V12.7756H140.863V14.6577H134.414V19.1108H141.424V21H132.219ZM147.118 21L143.084 6.45455H145.392L148.226 17.7188H148.361L151.308 6.45455H153.595L156.543 17.7259H156.678L159.504 6.45455H161.82L157.778 21H155.57L152.509 10.1051H152.395L149.334 21H147.118ZM163.821 21V6.45455H172.94V8.34375H166.015V12.7756H172.464V14.6577H166.015V19.1108H173.025V21H163.821ZM177.1 21H174.771L180.005 6.45455H182.54L187.775 21H185.445L181.333 9.09659H181.219L177.1 21ZM177.491 15.304H185.048V17.1506H177.491V15.304ZM189.875 21V6.45455H195.06C196.187 6.45455 197.122 6.64867 197.865 7.03693C198.614 7.42519 199.172 7.96259 199.542 8.64915C199.911 9.33097 200.096 10.1193 200.096 11.0142C200.096 11.9044 199.908 12.688 199.534 13.3651C199.165 14.0374 198.606 14.5606 197.858 14.9347C197.115 15.3087 196.18 15.4957 195.053 15.4957H191.125V13.6065H194.854C195.564 13.6065 196.142 13.5047 196.587 13.3011C197.037 13.0975 197.366 12.8016 197.574 12.4134C197.783 12.0251 197.887 11.5587 197.887 11.0142C197.887 10.465 197.78 9.98911 197.567 9.58665C197.359 9.18419 197.03 8.87642 196.58 8.66335C196.135 8.44555 195.55 8.33665 194.826 8.33665H192.07V21H189.875ZM197.056 14.4375L200.65 21H198.15L194.627 14.4375H197.056Z" fill="#343434"/>
</svg>
