<svg width="230" height="29" viewBox="0 0 230 29" fill="none" xmlns="http://www.w3.org/2000/svg">
<path d="M13.9745 17.6714C15.8346 17.6714 17.3425 16.185 17.3425 14.3514C17.3425 12.5179 15.8346 11.0315 13.9745 11.0315C12.1143 11.0315 10.6064 12.5179 10.6064 14.3514C10.6064 16.185 12.1143 17.6714 13.9745 17.6714Z" fill="#343434"/>
<path d="M0.218114 10.8314C0.218114 10.8713 0.17749 10.9513 0.17749 10.9913C0.17749 11.3513 0.46153 11.6713 0.867331 11.6713H6.58907C6.87311 11.6713 7.07601 11.5113 7.19778 11.2713C8.37467 8.7113 10.9718 6.99125 13.9339 6.99125C18.0324 6.99125 21.36 10.2713 21.36 14.3113C21.36 18.3513 18.0324 21.6313 13.9339 21.6313C10.931 21.6313 8.37456 19.8713 7.19778 17.3913C7.07601 17.1113 6.87311 16.9513 6.58896 16.9513H0.867552C0.502264 16.9513 0.1776 17.2312 0.1776 17.6313C0.1776 17.6713 0.1776 17.7513 0.218225 17.7913C1.80081 23.8713 7.36016 28.3513 13.9746 28.3513C21.8065 28.3513 28.1775 22.0712 28.1775 14.3513C28.1774 6.63129 21.8063 0.351318 13.9745 0.351318C7.36016 0.351318 1.8007 4.83137 0.218114 10.8314Z" fill="#343434"/>
<path d="M43.754 22.132C42.61 22.132 41.51 21.9487 40.454 21.582C39.4127 21.2153 38.606 20.7313 38.034 20.13L38.672 18.876C39.2293 19.4333 39.97 19.888 40.894 20.24C41.818 20.5773 42.7713 20.746 43.754 20.746C45.1327 20.746 46.1667 20.4967 46.856 19.998C47.5453 19.4847 47.89 18.8247 47.89 18.018C47.89 17.402 47.6993 16.9107 47.318 16.544C46.9513 16.1773 46.4967 15.8987 45.954 15.708C45.4113 15.5027 44.656 15.2827 43.688 15.048C42.5293 14.7547 41.6053 14.476 40.916 14.212C40.2267 13.9333 39.6327 13.5153 39.134 12.958C38.65 12.4007 38.408 11.6453 38.408 10.692C38.408 9.91467 38.6133 9.21067 39.024 8.58C39.4347 7.93467 40.0653 7.42133 40.916 7.04C41.7667 6.65867 42.8227 6.468 44.084 6.468C44.964 6.468 45.822 6.59267 46.658 6.842C47.5087 7.07667 48.242 7.40667 48.858 7.832L48.308 9.13C47.6627 8.70467 46.9733 8.38933 46.24 8.184C45.5067 7.964 44.788 7.854 44.084 7.854C42.7347 7.854 41.7153 8.118 41.026 8.646C40.3513 9.15933 40.014 9.82667 40.014 10.648C40.014 11.264 40.1973 11.7627 40.564 12.144C40.9453 12.5107 41.4147 12.7967 41.972 13.002C42.544 13.1927 43.3067 13.4053 44.26 13.64C45.3893 13.9187 46.2987 14.1973 46.988 14.476C47.692 14.74 48.286 15.1507 48.77 15.708C49.254 16.2507 49.496 16.9913 49.496 17.93C49.496 18.7073 49.2833 19.4187 48.858 20.064C48.4473 20.6947 47.8093 21.2007 46.944 21.582C46.0787 21.9487 45.0153 22.132 43.754 22.132ZM55.8203 8.008H50.4083V6.6H62.8603V8.008H57.4483V22H55.8203V8.008ZM71.9783 22.132C70.4529 22.132 69.0669 21.7947 67.8203 21.12C66.5883 20.4307 65.6203 19.492 64.9163 18.304C64.2269 17.116 63.8823 15.7813 63.8823 14.3C63.8823 12.8187 64.2269 11.484 64.9163 10.296C65.6203 9.108 66.5883 8.17667 67.8203 7.502C69.0669 6.81267 70.4529 6.468 71.9783 6.468C73.5036 6.468 74.8749 6.80533 76.0923 7.48C77.3243 8.15467 78.2923 9.09333 78.9963 10.296C79.7003 11.484 80.0523 12.8187 80.0523 14.3C80.0523 15.7813 79.7003 17.1233 78.9963 18.326C78.2923 19.514 77.3243 20.4453 76.0923 21.12C74.8749 21.7947 73.5036 22.132 71.9783 22.132ZM71.9783 20.68C73.1956 20.68 74.2956 20.4087 75.2783 19.866C76.2609 19.3087 77.0309 18.546 77.5883 17.578C78.1456 16.5953 78.4243 15.5027 78.4243 14.3C78.4243 13.0973 78.1456 12.012 77.5883 11.044C77.0309 10.0613 76.2609 9.29867 75.2783 8.756C74.2956 8.19867 73.1956 7.92 71.9783 7.92C70.7609 7.92 69.6536 8.19867 68.6563 8.756C67.6736 9.29867 66.8963 10.0613 66.3243 11.044C65.7669 12.012 65.4883 13.0973 65.4883 14.3C65.4883 15.5027 65.7669 16.5953 66.3243 17.578C66.8963 18.546 67.6736 19.3087 68.6563 19.866C69.6536 20.4087 70.7609 20.68 71.9783 20.68ZM94.2174 22L90.6974 17.05C90.3014 17.094 89.8907 17.116 89.4654 17.116H85.3294V22H83.7014V6.6H89.4654C91.4307 6.6 92.9707 7.06933 94.0854 8.008C95.2 8.94667 95.7574 10.2373 95.7574 11.88C95.7574 13.0827 95.4494 14.102 94.8334 14.938C94.232 15.7593 93.3667 16.3533 92.2374 16.72L95.9994 22H94.2174ZM89.4214 15.73C90.9467 15.73 92.1127 15.3927 92.9194 14.718C93.726 14.0433 94.1294 13.0973 94.1294 11.88C94.1294 10.6333 93.726 9.68 92.9194 9.02C92.1127 8.34533 90.9467 8.008 89.4214 8.008H85.3294V15.73H89.4214ZM110.49 20.592V22H99.5998V6.6H110.16V8.008H101.228V13.486H109.192V14.872H101.228V20.592H110.49ZM130.964 20.592V22H120.074V6.6H130.634V8.008H121.702V13.486H129.666V14.872H121.702V20.592H130.964ZM139.878 16.676V22H138.272V16.676L132.112 6.6H133.85L139.13 15.246L144.41 6.6H146.038L139.878 16.676ZM159.13 20.592V22H148.24V6.6H158.8V8.008H149.868V13.486H157.832V14.872H149.868V20.592H159.13ZM183.884 6.6L178.692 22H176.976L172.466 8.866L167.934 22H166.24L161.048 6.6H162.72L167.164 19.844L171.762 6.6H173.28L177.812 19.91L182.322 6.6H183.884ZM197.759 20.592V22H186.869V6.6H197.429V8.008H188.497V13.486H196.461V14.872H188.497V20.592H197.759ZM212.102 22L208.582 17.05C208.186 17.094 207.775 17.116 207.35 17.116H203.214V22H201.586V6.6H207.35C209.315 6.6 210.855 7.06933 211.97 8.008C213.085 8.94667 213.642 10.2373 213.642 11.88C213.642 13.0827 213.334 14.102 212.718 14.938C212.117 15.7593 211.251 16.3533 210.122 16.72L213.884 22H212.102ZM207.306 15.73C208.831 15.73 209.997 15.3927 210.804 14.718C211.611 14.0433 212.014 13.0973 212.014 11.88C212.014 10.6333 211.611 9.68 210.804 9.02C209.997 8.34533 208.831 8.008 207.306 8.008H203.214V15.73H207.306ZM228.375 20.592V22H217.485V6.6H228.045V8.008H219.113V13.486H227.077V14.872H219.113V20.592H228.375Z" fill="#343434"/>
</svg>
